<?xml version="1.0" standalone="no"?>
<!DOCTYPE svg PUBLIC "-//W3C//DTD SVG 20010904//EN"
 "http://www.w3.org/TR/2001/REC-SVG-20010904/DTD/svg10.dtd">
<svg version="1.0" xmlns="http://www.w3.org/2000/svg"
 width="1280.000000pt" height="804.000000pt" viewBox="0 0 1280.000000 804.000000"
 preserveAspectRatio="xMidYMid meet">

<g transform="translate(0.000000,804.000000) scale(0.100000,-0.100000)"
fill="#000000" stroke="none">
<path d="M5995 8029 c-1873 -75 -3582 -657 -4725 -1610 -142 -118 -411 -383
-516 -509 -640 -765 -876 -1604 -688 -2450 184 -830 782 -1603 1712 -2214
1015 -668 2359 -1094 3817 -1210 1089 -87 2220 6 3225 266 966 249 1819 641
2485 1141 267 201 566 477 741 687 622 742 862 1555 703 2380 -291 1514 -1946
2800 -4250 3305 -791 173 -1662 247 -2504 214z m1095 -254 c768 -60 1425 -186
2081 -401 802 -262 1459 -609 2029 -1072 141 -115 465 -441 574 -577 609 -764
792 -1620 525 -2455 -189 -588 -590 -1126 -1204 -1614 -137 -109 -466 -329
-644 -431 -1894 -1083 -4675 -1293 -6927 -524 -999 341 -1839 865 -2388 1489
-420 478 -661 980 -737 1540 -19 139 -16 468 5 615 91 629 401 1198 937 1720
1039 1011 2757 1646 4679 1729 188 8 885 -4 1070 -19z"/>
<path d="M5945 6643 c-416 -20 -839 -74 -1195 -154 -893 -201 -1626 -563
-2123 -1048 -202 -197 -331 -370 -443 -596 -123 -246 -174 -464 -174 -735 0
-255 49 -477 158 -712 42 -91 149 -278 158 -278 3 0 -6 21 -22 47 -186 318
-275 679 -245 995 15 157 33 246 81 391 142 428 477 829 965 1157 639 429
1496 710 2445 804 1439 143 2919 -160 3949 -807 783 -492 1231 -1150 1231
-1808 0 -396 -217 -836 -600 -1219 -444 -444 -1125 -809 -1914 -1024 -219 -60
-544 -132 -553 -122 -6 6 -26 784 -20 799 2 7 176 73 386 147 209 74 379 135
377 137 -1 2 -113 -23 -247 -56 -134 -33 -326 -79 -426 -102 l-183 -44 0 -48
c0 -49 0 -49 30 -45 17 3 33 1 35 -2 3 -4 -5 -57 -17 -116 -16 -83 -23 -162
-27 -329 -5 -175 -8 -215 -17 -195 -17 37 -47 60 -87 67 -32 5 -41 1 -72 -30
-51 -51 -43 -122 16 -153 55 -28 117 -7 140 48 l13 32 8 -34 c9 -39 -9 -160
-23 -160 -5 0 -9 -13 -9 -30 0 -35 -4 -34 51 -14 24 8 111 28 193 45 1488 296
2608 1046 2920 1955 224 655 33 1317 -549 1900 -642 643 -1669 1099 -2855
1268 -440 63 -949 89 -1355 69z"/>
<path d="M5875 6360 c-110 -10 -141 -18 -175 -47 -29 -24 -41 -63 -19 -63 5 0
7 5 4 11 -10 16 23 46 69 64 32 12 64 15 126 11 69 -4 95 -10 155 -40 82 -41
145 -102 145 -142 0 -37 -48 -78 -133 -111 -114 -45 -375 -177 -462 -235 -91
-60 -193 -158 -231 -225 -54 -92 -62 -189 -22 -282 33 -78 168 -230 233 -263
11 -6 4 4 -15 21 l-35 31 30 -12 c19 -7 104 -11 225 -12 172 -1 199 -3 230
-20 26 -14 32 -15 22 -4 -22 27 -98 39 -276 45 -156 5 -175 7 -213 29 -47 27
-105 91 -134 146 -27 52 -26 148 2 205 47 96 246 264 399 336 47 22 107 58
133 80 26 22 97 64 158 94 174 86 242 165 194 229 -8 10 -15 14 -15 7 0 -6 5
-15 10 -18 6 -3 10 -20 10 -37 0 -39 -52 -91 -130 -131 -30 -15 -44 -20 -30
-10 14 10 42 34 63 54 31 31 37 43 37 78 0 36 -6 48 -44 85 -51 52 -88 73
-171 98 l-60 18 54 -5 c58 -5 160 -48 217 -92 20 -15 44 -28 53 -29 29 -4 119
-111 131 -155 30 -110 -33 -171 -271 -265 -237 -93 -319 -166 -319 -283 0
-117 63 -154 327 -195 56 -9 110 -19 120 -22 17 -5 17 -5 0 6 -10 6 -76 22
-146 35 -120 22 -178 42 -226 79 -27 21 -12 20 33 -3 44 -22 142 -46 276 -66
85 -14 107 -21 156 -55 32 -22 74 -59 95 -82 34 -40 36 -46 31 -92 -3 -27 -13
-58 -23 -68 -25 -27 -95 -68 -146 -83 -31 -10 -35 -14 -17 -14 63 0 166 59
201 116 42 67 7 146 -105 241 -71 60 -135 89 -251 112 -116 24 -209 66 -213
96 -4 28 19 46 240 183 200 124 266 179 294 246 16 40 18 93 4 129 -37 98
-281 256 -417 272 -26 3 -59 6 -73 8 -14 1 -61 -1 -105 -4z m45 -460 c0 -12
-78 -65 -86 -57 -3 3 14 19 38 36 50 35 48 34 48 21z"/>
<path d="M7244 6144 c-126 -67 -396 -262 -515 -372 -31 -29 -63 -67 -70 -84
-11 -28 -11 -33 10 -49 27 -22 64 -17 134 18 38 19 51 21 68 12 24 -13 69 -14
128 -4 33 5 41 4 41 -9 0 -27 19 -27 81 0 51 23 62 25 70 13 5 -8 9 -19 9 -25
0 -6 9 -19 20 -29 23 -21 82 -16 185 16 58 18 69 18 106 6 l41 -14 -51 -37
c-28 -20 -95 -56 -149 -79 -127 -56 -257 -135 -326 -198 -60 -54 -74 -82 -56
-104 17 -20 38 -19 85 6 43 23 312 213 410 290 47 36 84 54 172 83 62 20 117
36 123 36 5 0 10 -13 10 -30 0 -54 55 -62 234 -35 55 8 101 15 103 15 2 0 -8
-11 -23 -23 -27 -24 -26 -47 1 -47 8 0 35 11 61 25 46 24 87 31 118 19 13 -5
12 -10 -6 -35 l-22 -29 23 -24 c29 -30 90 -46 181 -46 51 0 72 -4 76 -14 10
-26 62 -39 129 -33 54 5 65 4 65 -9 0 -25 50 -36 145 -31 l90 4 -28 -28 c-23
-23 -26 -32 -17 -48 6 -12 26 -23 47 -27 34 -6 175 -1 293 12 76 9 55 -9 -38
-31 -78 -19 -92 -29 -70 -51 11 -11 23 -12 69 -2 61 13 119 4 100 -15 -20 -20
-13 -53 15 -65 29 -14 182 -42 225 -42 32 0 45 13 26 27 -6 5 -51 15 -99 21
-48 7 -95 15 -103 19 -26 9 -11 27 33 38 83 21 81 55 -4 55 -30 0 -54 4 -54 8
0 20 50 52 123 80 86 33 117 55 117 83 0 29 -34 41 -101 33 -72 -8 -120 -37
-133 -80 l-9 -31 -137 -12 c-164 -13 -250 -14 -250 -2 0 5 21 17 48 27 59 22
69 31 54 46 -8 8 -21 9 -47 1 -30 -9 -35 -9 -35 4 0 14 -12 15 -78 10 -79 -6
-122 -1 -122 13 0 4 16 17 35 29 35 20 40 51 9 51 -8 0 -29 10 -45 23 -26 19
-43 22 -112 22 -69 0 -87 -4 -114 -22 -25 -19 -44 -23 -106 -23 -88 0 -143 15
-127 36 7 7 40 22 76 34 77 26 108 48 99 73 -10 23 -40 21 -101 -7 -44 -20
-53 -22 -69 -10 -10 8 -29 14 -43 14 -33 0 -20 14 27 30 28 9 41 19 41 32 0
27 -27 22 -120 -22 -58 -29 -85 -37 -90 -29 -6 9 -44 7 -154 -6 -80 -10 -149
-16 -152 -12 -11 11 9 29 59 52 40 19 53 21 68 12 15 -10 23 -8 41 10 18 18
19 24 8 37 -16 20 -51 20 -98 0 -20 -9 -68 -22 -107 -29 -38 -8 -86 -17 -105
-20 l-35 -7 43 32 c42 32 55 60 27 60 -8 0 -38 -10 -67 -21 -75 -30 -117 -41
-129 -33 -13 8 25 50 64 71 16 8 26 20 24 26 -10 30 -118 -22 -139 -68 -9 -20
-26 -28 -103 -46 -110 -25 -129 -23 -133 12 -4 34 19 52 148 119 103 52 119
65 102 82 -6 6 -57 -15 -146 -60 -75 -38 -136 -66 -136 -63 0 3 9 12 20 19 24
15 27 52 4 52 -9 0 -45 -24 -81 -54 -36 -30 -73 -55 -82 -54 -9 0 -50 -4 -91
-8 l-75 -7 28 28 c62 63 11 90 -59 32 -46 -39 -153 -102 -160 -94 -10 10 15
44 70 94 56 51 70 59 239 133 118 51 201 104 273 172 54 51 64 74 42 96 -18
18 -40 15 -94 -14z m40 -43 c-80 -72 -264 -187 -264 -164 1 18 258 188 269
178 2 -3 0 -9 -5 -14z m1431 -660 c8 -14 -22 -28 -75 -35 -68 -10 -98 22 -35
37 36 9 104 7 110 -2z m-1526 -94 c-137 -99 -169 -120 -175 -114 -16 16 242
197 280 197 4 0 -43 -37 -105 -83z m2320 -1 c-11 -11 -109 -45 -109 -37 0 12
21 28 45 34 26 6 70 8 64 3z"/>
<path d="M4964 5878 c-28 -29 -61 -66 -73 -82 -12 -16 -35 -39 -52 -52 -17
-13 -42 -38 -55 -57 -16 -25 -41 -42 -86 -60 -147 -58 -167 -44 -74 53 36 37
66 72 66 78 0 5 -6 15 -14 21 -18 15 -55 -6 -91 -52 -19 -25 -32 -31 -70 -33
l-46 -3 30 35 c33 37 37 49 21 59 -17 11 -63 -30 -120 -107 -36 -48 -75 -86
-111 -109 -58 -38 -126 -65 -136 -55 -3 3 19 33 49 68 63 72 82 104 74 124 -3
8 -14 14 -24 14 -21 0 -97 -76 -127 -127 -11 -18 -22 -33 -25 -33 -3 0 -30
-18 -60 -41 -139 -104 -191 -92 -72 17 39 36 53 56 49 68 -9 23 -41 20 -75 -9
-36 -30 -38 -30 -45 -5 -13 50 -65 9 -105 -83 -7 -16 -26 -34 -47 -43 -48 -20
-55 -18 -55 15 0 16 -7 34 -15 41 -52 43 -175 -105 -175 -210 0 -27 26 -60 48
-60 21 0 74 54 104 107 20 35 36 53 49 53 37 0 126 54 145 88 9 17 21 32 27
32 10 0 7 -15 -14 -67 -10 -26 -10 -34 0 -47 29 -35 103 -12 190 57 38 30 47
33 55 21 23 -31 77 -28 148 9 38 20 76 33 87 30 14 -3 26 5 44 32 29 43 56 63
98 75 31 9 31 9 25 -25 -6 -29 -3 -36 20 -51 22 -15 34 -16 78 -7 29 6 80 24
114 40 40 20 65 26 71 20 27 -27 113 2 150 49 25 31 27 57 6 78 -8 8 -15 17
-15 20 0 3 27 37 60 77 56 67 65 89 37 89 -7 0 -35 -24 -63 -52z m-64 -172 c0
-8 -12 -24 -26 -35 -46 -36 -59 -23 -23 23 22 28 49 35 49 12z m-1280 -292 c0
-21 -36 -88 -56 -105 -16 -13 -17 -11 -11 24 11 67 67 135 67 81z"/>
<path d="M6290 5297 c0 -3 12 -12 26 -22 15 -9 23 -12 20 -6 -7 11 -46 35 -46
28z"/>
<path d="M6350 5257 c0 -2 15 -16 33 -33 l32 -29 -29 33 c-28 30 -36 37 -36
29z"/>
<path d="M4430 5193 c-76 -6 -211 -33 -300 -60 -150 -45 -902 -349 -978 -395
-72 -44 -53 -148 28 -148 15 0 119 45 232 100 113 55 210 100 215 100 8 0 12
-157 15 -509 3 -499 3 -510 24 -538 46 -61 117 -32 144 60 17 58 24 599 11
852 -9 181 -8 201 7 213 28 21 369 152 547 209 218 70 215 69 215 92 0 29 -32
34 -160 24z"/>
<path d="M5005 4686 c-36 -36 -38 -104 -21 -601 9 -247 16 -469 16 -492 0 -48
28 -39 -220 -69 -450 -53 -906 -158 -1154 -265 -435 -189 -446 -416 -31 -619
340 -165 887 -291 1625 -375 124 -14 231 -25 238 -25 7 0 12 14 12 35 0 19 -3
35 -7 35 -5 0 -80 7 -168 15 -1179 111 -1945 337 -1945 575 0 123 202 238 590
335 1202 302 3706 280 4998 -45 516 -130 748 -283 668 -439 -31 -59 -141 -132
-283 -186 -41 -16 -73 -34 -73 -42 0 -7 3 -13 6 -13 19 0 177 77 233 114 525
344 -232 734 -1754 905 -382 43 -782 68 -1240 78 l-322 6 -7 60 c-3 33 -6 120
-6 194 0 124 2 137 26 186 60 119 186 289 270 366 84 77 100 86 129 73 58 -27
53 -179 -10 -308 -43 -88 -121 -164 -229 -224 -81 -44 -116 -79 -116 -115 0
-37 24 -48 86 -42 72 7 142 42 227 112 168 138 266 339 255 523 -5 89 -31 138
-93 177 -42 26 -58 30 -119 30 -60 0 -80 -5 -126 -30 -70 -39 -171 -140 -239
-240 -30 -44 -58 -84 -62 -89 -4 -4 -5 79 -2 186 6 190 5 196 -16 217 -30 30
-94 29 -126 -3 -36 -36 -38 -104 -21 -610 9 -253 15 -461 13 -463 -2 -2 -112
-8 -243 -13 -131 -5 -319 -15 -416 -22 -98 -6 -180 -9 -183 -6 -4 3 -9 100
-12 214 l-6 209 28 55 c89 176 299 428 373 447 94 23 89 -220 -7 -361 -43 -62
-121 -129 -206 -176 -79 -44 -115 -79 -115 -114 0 -32 19 -46 60 -46 171 0
405 213 482 439 18 52 23 88 23 172 0 98 -2 108 -28 147 -39 60 -95 86 -182
87 -59 0 -78 -5 -124 -30 -75 -41 -175 -142 -245 -247 -32 -49 -59 -88 -59
-88 -1 0 0 87 2 194 3 186 2 195 -18 215 -30 30 -94 29 -126 -3z"/>
<path d="M7270 4675 c-77 -16 -128 -34 -198 -69 -57 -29 -82 -58 -82 -96 0
-58 45 -64 138 -20 120 57 197 71 262 49 41 -15 60 -58 60 -141 l0 -63 -93 0
c-143 -1 -266 -53 -356 -150 -54 -59 -72 -102 -72 -176 -1 -74 25 -119 89
-157 43 -25 55 -27 152 -27 101 0 137 8 233 50 14 6 17 2 17 -19 0 -38 41 -76
82 -76 72 0 106 45 107 137 1 39 4 44 36 57 47 20 85 60 85 90 0 26 -45 70
-64 63 -6 -2 -21 -7 -33 -11 l-23 -7 0 189 c0 223 -10 272 -69 331 -59 59
-140 73 -271 46z m139 -509 c18 -19 25 -39 29 -80 l4 -56 -44 -20 c-165 -73
-298 -62 -298 23 0 120 225 217 309 133z"/>
<path d="M9045 4683 c-67 -9 -154 -36 -223 -69 -57 -28 -76 -43 -89 -69 -15
-31 -15 -36 1 -60 23 -35 51 -31 166 21 73 32 96 38 158 38 69 1 75 -1 98 -27
21 -25 24 -38 24 -106 l0 -79 -62 5 c-176 14 -395 -107 -441 -241 -43 -127 8
-232 129 -266 66 -19 195 -8 278 24 37 14 70 26 72 26 2 0 4 -13 4 -29 0 -64
93 -94 146 -47 24 20 28 32 32 89 4 64 5 65 43 82 56 26 81 56 77 96 -4 42
-42 65 -81 50 l-25 -10 -4 197 c-4 153 -9 207 -22 244 -38 104 -139 151 -281
131z m86 -503 c26 -14 39 -50 39 -105 0 -42 -2 -46 -40 -65 -49 -25 -151 -50
-208 -50 -60 0 -97 36 -89 88 8 48 80 116 145 137 49 15 118 13 153 -5z"/>
<path d="M4525 4626 c-108 -34 -215 -122 -277 -227 -72 -121 -88 -301 -38
-418 72 -167 297 -212 500 -99 76 43 167 114 175 138 3 10 1 29 -5 41 -15 28
-48 21 -128 -26 -90 -52 -138 -67 -224 -69 -86 -1 -117 14 -152 73 l-19 32 24
17 c71 49 222 179 280 238 78 82 109 137 109 197 0 48 -30 86 -83 106 -37 14
-112 13 -162 -3z m82 -152 c3 -8 -4 -26 -18 -41 -33 -35 -222 -193 -232 -193
-11 0 3 49 29 100 25 50 83 111 129 134 39 20 84 20 92 0z"/>
<path d="M8103 4585 c-87 -43 -196 -154 -239 -241 -27 -55 -29 -67 -29 -174 0
-106 2 -119 27 -166 99 -187 353 -246 582 -135 90 44 126 82 126 131 0 58 -34
63 -167 20 -238 -76 -393 2 -393 200 0 104 56 196 159 262 57 36 140 40 148 8
3 -11 12 -20 20 -20 27 0 70 29 76 51 15 57 -57 98 -169 99 -62 0 -81 -5 -141
-35z"/>
<path d="M7365 3316 c-109 -26 -254 -117 -313 -194 -44 -58 -219 -207 -281
-241 -92 -48 -131 -44 -260 28 -267 149 -580 248 -898 283 -152 17 -914 17
-1058 0 -256 -30 -416 -80 -423 -130 -5 -32 19 -55 87 -86 52 -23 81 -27 347
-46 159 -11 334 -27 389 -36 397 -61 662 -220 896 -541 58 -79 63 -83 127
-104 121 -39 194 -84 379 -231 171 -136 347 -249 530 -340 158 -79 166 -82
179 -63 8 10 14 24 14 29 0 6 -60 50 -133 97 -72 48 -238 159 -368 246 -317
214 -495 303 -609 303 l-38 0 -22 73 c-84 278 -289 454 -625 536 -154 37 -295
54 -605 71 -297 17 -406 37 -445 80 -17 19 -17 21 -1 39 45 49 258 71 764 78
886 12 1090 -30 1592 -326 156 -92 177 -85 352 121 115 136 204 209 323 267
108 52 186 74 272 75 62 1 75 -2 96 -22 31 -29 42 -69 26 -88 -7 -8 -90 -53
-184 -99 -191 -93 -257 -144 -269 -206 -3 -20 -2 -78 4 -130 14 -133 12 -306
-4 -352 -29 -79 -100 -139 -190 -161 l-30 -7 30 -20 c50 -35 137 -76 203 -98
36 -12 65 -20 66 -19 1 2 12 25 23 51 l21 48 -34 -7 c-38 -7 -165 13 -165 26
0 4 11 11 24 14 36 9 82 63 97 114 17 57 17 265 0 405 -15 119 -7 152 52 203
23 20 130 79 237 133 186 91 195 97 198 127 4 41 -35 79 -101 99 -60 18 -201
18 -272 1z"/>
</g>
</svg>
